<svg width="167" height="87" viewBox="0 0 167 87" fill="none" xmlns="http://www.w3.org/2000/svg">
<path d="M44.8231 54.5709C43.116 53.773 36.321 49.2875 36.9401 47.9645C37.5593 46.6415 45.3541 48.9817 47.0636 49.7802C48.7731 50.5786 50.7773 53.0407 50.2435 54.1873C49.7096 55.334 46.5297 55.3694 44.8231 54.5709Z" fill="#C73C63"/>
<path d="M33.1559 54.8237C33.9549 53.1142 38.4398 46.325 39.7629 46.9407C41.0859 47.5564 38.7462 55.3576 37.9478 57.0647C37.1493 58.7719 34.6866 60.7785 33.5412 60.2446C32.3957 59.7108 32.3586 56.5315 33.1559 54.8237Z" fill="#C73C63"/>
<path d="M44.5705 42.9053C43.7721 44.6124 39.2865 51.4068 37.9635 50.7883C36.6405 50.1697 38.9807 42.3743 39.7792 40.6642C40.5777 38.9542 43.0398 36.9505 44.1858 37.4843C45.3318 38.0182 45.3684 41.1981 44.5705 42.9053Z" fill="#C73C63"/>
<path d="M39.0424 57.1137C38.3994 55.3415 36.7666 47.3651 38.1395 46.8684C39.5124 46.3716 43.3724 53.5415 44.0147 55.3102C44.6571 57.0788 44.3362 60.2425 43.1472 60.6748C41.9583 61.1071 39.6847 58.8852 39.0424 57.1137Z" fill="#C73C63"/>
<path d="M38.6844 40.6151C39.3268 42.3872 40.9597 50.3636 39.5862 50.8615C38.2127 51.3594 34.3539 44.1884 33.7115 42.4185C33.0691 40.6487 33.39 37.4862 34.5819 37.0545C35.7738 36.6228 38.0415 38.8441 38.6844 40.6151Z" fill="#C73C63"/>
<path d="M30.6158 49.0434C32.3873 48.4004 40.3644 46.7675 40.8616 48.1405C41.3589 49.5134 34.1885 53.3728 32.4193 54.0157C30.65 54.6587 27.4869 54.3372 27.0546 53.1453C26.6223 51.9534 28.8436 49.6857 30.6158 49.0434Z" fill="#C73C63"/>
<path d="M32.7107 44.5708C34.4753 45.2323 41.6016 49.1701 41.0893 50.5372C40.5769 51.9043 32.6173 50.185 30.8538 49.5235C29.0904 48.8619 26.8929 46.5641 27.3374 45.3803C27.7819 44.1966 30.9461 43.9093 32.7107 44.5708Z" fill="#C73C63"/>
<path d="M47.1143 48.6859C45.3427 49.3289 37.3657 50.9612 36.8684 49.5889C36.3711 48.2165 43.5415 44.3559 45.3114 43.7136C47.0812 43.0712 50.2437 43.3915 50.6754 44.584C51.1071 45.7765 48.8864 48.0436 47.1143 48.6859Z" fill="#C73C63"/>
<path d="M45.5099 51.7745C43.8747 51.7745 36.8848 50.7469 36.8848 49.4795C36.8848 48.2122 43.8747 47.1846 45.5099 47.1846C47.1452 47.1846 49.6299 48.3817 49.6299 49.4795C49.6299 50.5774 47.1452 51.7745 45.5099 51.7745Z" fill="#E24E74"/>
<path d="M31.9442 47.1846C33.5794 47.1846 40.5688 48.2122 40.5688 49.4795C40.5688 50.7469 33.5794 51.7745 31.9442 51.7745C30.3089 51.7745 27.8242 50.5768 27.8242 49.4795C27.8242 48.3823 30.3084 47.1846 31.9442 47.1846Z" fill="#E24E74"/>
<path d="M36.4316 56.2623C36.4316 54.6265 37.4593 47.6377 38.7272 47.6377C39.9951 47.6377 41.0222 54.6265 41.0222 56.2623C41.0222 57.8981 39.8251 60.3822 38.7272 60.3822C37.6293 60.3822 36.4316 57.8969 36.4316 56.2623Z" fill="#E24E74"/>
<path d="M41.0222 42.6971C41.0222 44.3323 39.9945 51.3223 38.7272 51.3223C37.4599 51.3223 36.4316 44.3323 36.4316 42.6971C36.4316 41.0619 37.6293 38.5771 38.7272 38.5771C39.8251 38.5771 41.0222 41.0619 41.0222 42.6971Z" fill="#E24E74"/>
<path d="M41.9005 55.8994C40.744 54.7429 36.5284 49.0736 37.4249 48.1777C38.3214 47.2817 43.9901 51.4974 45.1466 52.6539C46.3031 53.8104 47.2129 56.4129 46.4359 57.1893C45.659 57.9657 43.057 57.0541 41.9005 55.8994Z" fill="#E24E74"/>
<path d="M35.5536 43.0611C36.7101 44.2175 40.9258 49.8862 40.0299 50.7827C39.1339 51.6793 33.4646 47.4624 32.3082 46.3065C31.1517 45.1506 30.2418 42.5469 31.0211 41.7711C31.8004 40.9953 34.3977 41.9046 35.5536 43.0611Z" fill="#E24E74"/>
<path d="M32.3095 52.6529C33.466 51.4964 39.1347 47.2807 40.0312 48.1767C40.9277 49.0726 36.7091 54.7419 35.555 55.8995C34.4008 57.0572 31.796 57.9647 31.0225 57.1883C30.249 56.4119 31.1536 53.8106 32.3095 52.6529Z" fill="#E24E74"/>
<path d="M45.1464 46.3068C43.9894 47.4627 38.3207 51.6789 37.4247 50.783C36.5288 49.8871 40.7439 44.2178 41.9004 43.0613C43.0569 41.9048 45.66 40.9949 46.4358 41.7714C47.2116 42.5478 46.3023 45.1503 45.1464 46.3068Z" fill="#E24E74"/>
<path d="M38.6989 52.882C37.9964 52.8821 37.3096 52.6739 36.7254 52.2837C36.1412 51.8934 35.6859 51.3387 35.417 50.6897C35.1481 50.0406 35.0777 49.3264 35.2147 48.6374C35.3517 47.9483 35.69 47.3154 36.1868 46.8186C36.6836 46.3219 37.3165 45.9836 38.0055 45.8465C38.6946 45.7095 39.4088 45.7799 40.0578 46.0488C40.7069 46.3177 41.2616 46.773 41.6518 47.3572C42.0421 47.9414 42.2503 48.6282 42.2502 49.3308C42.25 50.2726 41.8758 51.1758 41.2099 51.8417C40.5439 52.5077 39.6407 52.8819 38.6989 52.882Z" fill="white"/>
<path d="M123.714 16.4799C122.408 16.4799 119.816 15.6599 119.816 14.6488C119.816 13.6377 122.409 12.8174 123.714 12.8174C126.002 12.8174 127 13.7726 127 14.6488C127 15.525 125.959 16.4799 123.714 16.4799Z" fill="#E24E74"/>
<path d="M121.957 14.8346C121.791 14.8346 121.461 14.7516 121.461 14.6489C121.461 14.5463 121.791 14.4629 121.957 14.4629C122.248 14.4629 122.376 14.5601 122.376 14.6489C122.376 14.7378 122.243 14.8346 121.957 14.8346Z" fill="#721C45"/>
<path d="M115.287 12.8174C116.593 12.8174 119.184 13.6377 119.184 14.6488C119.184 15.6599 116.592 16.4799 115.287 16.4799C112.998 16.4799 112 15.525 112 14.6488C112 13.7726 113.042 12.8174 115.287 12.8174Z" fill="#E24E74"/>
<path d="M120.086 19.2047C119.418 18.0841 118.793 15.4377 119.662 14.9195C120.53 14.4013 122.563 16.207 123.231 17.3276C124.404 19.2929 124.096 20.6394 123.343 21.0884C122.591 21.5374 121.237 21.133 120.086 19.2047Z" fill="#E24E74"/>
<path d="M118.913 10.0925C119.581 11.2117 120.206 13.8591 119.338 14.3777C118.47 14.8964 116.436 13.0899 115.768 11.9693C114.595 10.004 114.904 8.65782 115.656 8.20848C116.407 7.75914 117.762 8.16533 118.913 10.0925Z" fill="#E24E74"/>
<path d="M115.799 17.3726C116.454 16.2443 118.465 14.4143 119.34 14.922C120.214 15.4298 119.621 18.0834 118.966 19.2116C117.817 21.191 116.49 21.5744 115.732 21.1337C114.975 20.6931 114.673 19.3146 115.799 17.3726Z" fill="#E24E74"/>
<path d="M123.199 11.9253C122.544 13.0539 120.533 14.8839 119.658 14.3762C118.784 13.8685 119.377 11.2149 120.032 10.0863C121.181 8.10722 122.508 7.72352 123.266 8.16415C124.023 8.60479 124.327 9.98327 123.199 11.9253Z" fill="#E24E74"/>
<path d="M119.443 16.3321C119.11 16.3321 118.785 16.2333 118.508 16.0484C118.231 15.8635 118.015 15.6006 117.888 15.293C117.76 14.9855 117.727 14.6471 117.792 14.3206C117.857 13.9941 118.017 13.6942 118.253 13.4588C118.488 13.2234 118.788 13.0631 119.115 12.9982C119.441 12.9332 119.779 12.9665 120.087 13.0939C120.395 13.2213 120.657 13.4371 120.842 13.7138C121.027 13.9906 121.126 14.316 121.126 14.6489C121.126 14.87 121.083 15.0889 120.998 15.2931C120.913 15.4973 120.789 15.6829 120.633 15.8392C120.477 15.9955 120.291 16.1195 120.087 16.204C119.883 16.2886 119.664 16.3321 119.443 16.3321Z" fill="#E98D9E"/>
<path d="M116.893 14.4629C117.06 14.4629 117.389 14.5463 117.389 14.6489C117.389 14.7516 117.06 14.8346 116.893 14.8346C116.603 14.8346 116.475 14.7374 116.475 14.6489C116.475 14.5604 116.607 14.4629 116.893 14.4629Z" fill="#721C45"/>
<path d="M120.467 16.9627C120.388 16.8176 120.304 16.4869 120.395 16.4379C120.485 16.3889 120.715 16.6392 120.794 16.7857C120.932 17.0417 120.908 17.1998 120.83 17.2419C120.752 17.284 120.604 17.214 120.467 16.9627Z" fill="#721C45"/>
<path d="M118.383 12.3361C118.462 12.4811 118.546 12.8122 118.455 12.8608C118.365 12.9094 118.134 12.6596 118.056 12.5134C117.918 12.2574 117.942 12.0996 118.02 12.0568C118.098 12.014 118.246 12.0822 118.383 12.3361Z" fill="#721C45"/>
<path d="M120.898 12.5813C120.812 12.7235 120.569 12.9621 120.481 12.9077C120.393 12.8533 120.494 12.5291 120.58 12.3869C120.731 12.1378 120.88 12.0797 120.956 12.1258C121.032 12.1718 121.047 12.3372 120.898 12.5813Z" fill="#721C45"/>
<path d="M117.952 16.7152C118.038 16.573 118.281 16.3344 118.369 16.3888C118.456 16.4432 118.356 16.767 118.27 16.9092C118.118 17.158 117.969 17.2164 117.894 17.1703C117.818 17.1243 117.804 16.9596 117.952 16.7152Z" fill="#721C45"/>
<path d="M121.5 16.1101C121.357 16.0246 121.117 15.7837 121.17 15.6956C121.222 15.6075 121.548 15.7061 121.691 15.7917C121.941 15.9411 122 16.0898 121.954 16.166C121.908 16.2422 121.745 16.2574 121.5 16.1101Z" fill="#721C45"/>
<path d="M117.349 13.1875C117.492 13.2731 117.732 13.5139 117.679 13.602C117.627 13.6901 117.301 13.5918 117.158 13.5063C116.908 13.3565 116.849 13.2078 116.895 13.1316C116.941 13.0555 117.106 13.0406 117.349 13.1875Z" fill="#721C45"/>
<path d="M119.13 17.1701C119.137 17.004 119.234 16.678 119.337 16.6827C119.44 16.6874 119.508 17.0199 119.501 17.1864C119.489 17.4765 119.386 17.6002 119.298 17.5962C119.209 17.5922 119.118 17.4555 119.13 17.1701Z" fill="#721C45"/>
<path d="M119.719 12.127C119.713 12.2931 119.615 12.6195 119.513 12.6148C119.411 12.6101 119.341 12.2772 119.348 12.1111C119.361 11.8209 119.463 11.6973 119.552 11.7013C119.64 11.7053 119.732 11.8416 119.719 12.127Z" fill="#721C45"/>
<path d="M121.751 13.6341C121.603 13.7118 121.273 13.7923 121.225 13.7012C121.177 13.6102 121.43 13.3832 121.578 13.3056C121.835 13.1696 121.993 13.1968 122.034 13.2751C122.075 13.3534 122.003 13.501 121.751 13.6341Z" fill="#721C45"/>
<path d="M117.099 15.6627C117.246 15.5851 117.577 15.5053 117.625 15.596C117.673 15.6867 117.42 15.9141 117.273 15.9917C117.015 16.1273 116.857 16.1005 116.816 16.0221C116.774 15.9438 116.846 15.7958 117.099 15.6627Z" fill="#721C45"/>
<path d="M35.93 22.032C36.4752 23.3667 35.0604 27.0568 34.2932 27.0253C33.526 26.9938 32.5104 22.9411 33.1527 21.9172C33.6796 21.0785 34.5401 21 34.5401 21C34.5401 21 35.5557 21.1154 35.93 22.032Z" fill="#E8858C"/>
<path d="M33.0712 33.0098C32.526 31.6754 33.9411 27.985 34.7079 28.0168C35.4748 28.0487 36.4907 32.101 35.8484 33.1249C35.3218 33.9636 34.461 34.0424 34.461 34.0424C34.461 34.0424 33.4457 33.927 33.0712 33.0098Z" fill="#E8858C"/>
<path d="M39.5373 24.9119C38.9098 26.2097 35.2203 27.6261 34.7306 27.0349C34.241 26.4437 36.5733 22.9778 37.7643 22.7709C38.7417 22.6013 39.3752 23.1897 39.3752 23.1897C39.3752 23.1897 39.968 24.0205 39.5373 24.9119Z" fill="#E8858C"/>
<path d="M29.4637 30.1295C30.0912 28.8314 33.7813 27.4153 34.27 28.0065C34.7587 28.5977 32.4267 32.0636 31.2364 32.2705C30.2608 32.4398 29.6255 31.8514 29.6255 31.8514C29.6255 31.8514 29.0327 31.0209 29.4637 30.1295Z" fill="#E8858C"/>
<path d="M39.8684 29.3519C38.4971 29.7971 34.9214 28.1133 35.0094 27.3512C35.0974 26.5891 39.2144 25.8746 40.1875 26.5907C40.9849 27.1775 40.9997 28.043 40.9997 28.043C40.9997 28.043 40.8102 29.046 39.8684 29.3519Z" fill="#E8858C"/>
<path d="M29.1313 25.69C30.5023 25.2448 34.0783 26.9282 33.99 27.6907C33.9017 28.4531 29.7853 29.1673 28.8122 28.4512C28.0145 27.8641 28 26.9985 28 26.9985C28 26.9985 28.1898 25.9955 29.1313 25.69Z" fill="#E8858C"/>
<path d="M31.7481 22.5618C33.0636 23.1517 34.5859 26.7992 34.0083 27.3053C33.4306 27.8114 29.9001 25.579 29.6589 24.3953C29.4612 23.4248 30.0312 22.773 30.0312 22.773C30.0312 22.773 30.8435 22.1566 31.7481 22.5618Z" fill="#E8858C"/>
<path d="M37.2535 32.4805C35.938 31.8905 34.4157 28.243 34.993 27.7366C35.5704 27.2302 39.1012 29.4633 39.3425 30.6469C39.5402 31.6172 38.9704 32.2689 38.9704 32.2689C38.9704 32.2689 38.1569 32.8866 37.2535 32.4805Z" fill="#E8858C"/>
<path d="M35.5371 27.403C35.5371 27.6079 35.4764 27.8083 35.3626 27.9787C35.2488 28.1491 35.087 28.282 34.8977 28.3605C34.7084 28.4389 34.5 28.4595 34.299 28.4195C34.098 28.3796 33.9134 28.2809 33.7684 28.1361C33.6235 27.9912 33.5248 27.8065 33.4848 27.6056C33.4448 27.4046 33.4653 27.1962 33.5437 27.0069C33.6221 26.8175 33.7549 26.6557 33.9253 26.5418C34.0957 26.428 34.296 26.3672 34.501 26.3672C34.637 26.3671 34.7717 26.3939 34.8974 26.4459C35.0231 26.498 35.1374 26.5743 35.2336 26.6705C35.3298 26.7666 35.4061 26.8808 35.4582 27.0065C35.5103 27.1322 35.5371 27.2669 35.5371 27.403Z" fill="#CD5867"/>
<path d="M34.7421 25.1435C34.7421 25.1914 34.7279 25.2382 34.7013 25.2781C34.6747 25.3179 34.6369 25.3489 34.5926 25.3673C34.5484 25.3856 34.4997 25.3904 34.4527 25.381C34.4058 25.3717 34.3626 25.3486 34.3287 25.3148C34.2949 25.2809 34.2718 25.2377 34.2625 25.1908C34.2531 25.1438 34.2579 25.0951 34.2762 25.0509C34.2946 25.0066 34.3256 24.9688 34.3654 24.9422C34.4053 24.9156 34.4521 24.9014 34.5 24.9014C34.5318 24.9014 34.5633 24.9076 34.5926 24.9198C34.622 24.932 34.6487 24.9498 34.6712 24.9723C34.6937 24.9948 34.7115 25.0215 34.7237 25.0509C34.7359 25.0802 34.7421 25.1117 34.7421 25.1435Z" fill="#CD5867"/>
<path d="M34.7421 29.667C34.7421 29.7149 34.7279 29.7617 34.7013 29.8015C34.6747 29.8413 34.6369 29.8724 34.5926 29.8907C34.5484 29.909 34.4997 29.9138 34.4527 29.9045C34.4058 29.8951 34.3626 29.8721 34.3287 29.8382C34.2949 29.8043 34.2718 29.7612 34.2625 29.7142C34.2531 29.6672 34.2579 29.6185 34.2762 29.5743C34.2946 29.53 34.3256 29.4922 34.3654 29.4656C34.4053 29.439 34.4521 29.4248 34.5 29.4248C34.5642 29.4248 34.6258 29.4503 34.6712 29.4957C34.7166 29.5411 34.7421 29.6027 34.7421 29.667Z" fill="#CD5867"/>
<path d="M34.5 29.6676V25.1436" stroke="#CD5867" stroke-width="0.240898" stroke-miterlimit="10"/>
<path d="M36.7614 27.6478C36.7135 27.6478 36.6668 27.6336 36.627 27.607C36.5872 27.5804 36.5562 27.5426 36.5379 27.4984C36.5196 27.4542 36.5148 27.4055 36.5242 27.3586C36.5336 27.3117 36.5566 27.2686 36.5905 27.2348C36.6243 27.201 36.6675 27.178 36.7144 27.1687C36.7613 27.1594 36.81 27.1642 36.8541 27.1826C36.8983 27.2009 36.9361 27.232 36.9626 27.2718C36.9891 27.3116 37.0033 27.3584 37.0032 27.4062C37.0032 27.438 36.997 27.4694 36.9848 27.4987C36.9726 27.528 36.9548 27.5547 36.9324 27.5771C36.9099 27.5996 36.8832 27.6173 36.8539 27.6295C36.8246 27.6416 36.7931 27.6478 36.7614 27.6478Z" fill="#CD5867"/>
<path d="M32.2379 27.6478C32.1901 27.6478 32.1433 27.6336 32.1035 27.607C32.0638 27.5804 32.0328 27.5426 32.0145 27.4984C31.9962 27.4542 31.9914 27.4055 32.0008 27.3586C32.0101 27.3117 32.0332 27.2686 32.067 27.2348C32.1009 27.201 32.144 27.178 32.1909 27.1687C32.2379 27.1594 32.2865 27.1642 32.3307 27.1826C32.3749 27.2009 32.4126 27.232 32.4392 27.2718C32.4657 27.3116 32.4798 27.3584 32.4798 27.4062C32.4798 27.438 32.4735 27.4694 32.4614 27.4987C32.4492 27.528 32.4314 27.5547 32.4089 27.5771C32.3865 27.5996 32.3598 27.6173 32.3305 27.6295C32.3011 27.6416 32.2697 27.6478 32.2379 27.6478Z" fill="#CD5867"/>
<path d="M32.2383 27.4053H36.7624" stroke="#CD5867" stroke-width="0.240898" stroke-miterlimit="10"/>
<path d="M36.2702 25.9764C36.2364 26.0102 36.1933 26.0332 36.1464 26.0425C36.0995 26.0518 36.0509 26.0471 36.0067 26.0287C35.9625 26.0104 35.9247 25.9794 35.8982 25.9397C35.8716 25.8999 35.8574 25.8531 35.8574 25.8053C35.8574 25.7575 35.8716 25.7107 35.8982 25.671C35.9247 25.6312 35.9625 25.6002 36.0067 25.5819C36.0509 25.5636 36.0995 25.5588 36.1464 25.5681C36.1933 25.5774 36.2364 25.6005 36.2702 25.6343C36.3155 25.6797 36.341 25.7412 36.341 25.8053C36.341 25.8695 36.3155 25.931 36.2702 25.9764Z" fill="#CD5867"/>
<path d="M33.0728 29.1758C33.039 29.2095 32.9959 29.2325 32.949 29.2418C32.9021 29.2511 32.8535 29.2462 32.8093 29.2279C32.7652 29.2096 32.7274 29.1786 32.7009 29.1388C32.6743 29.0991 32.6602 29.0523 32.6602 29.0045C32.6602 28.9567 32.6743 28.91 32.7009 28.8702C32.7274 28.8305 32.7652 28.7995 32.8093 28.7812C32.8535 28.7628 32.9021 28.758 32.949 28.7673C32.9959 28.7766 33.039 28.7996 33.0728 28.8333C33.1182 28.8787 33.1437 28.9403 33.1437 29.0045C33.1437 29.0688 33.1182 29.1303 33.0728 29.1758Z" fill="#CD5867"/>
<path d="M32.9004 29.0045L36.0995 25.8057" stroke="#CD5867" stroke-width="0.240898" stroke-miterlimit="10"/>
<path d="M33.0731 25.6344C33.1069 25.6682 33.1299 25.7113 33.1392 25.7582C33.1485 25.8051 33.1437 25.8537 33.1254 25.8979C33.1071 25.9421 33.0761 25.9798 33.0363 26.0064C32.9966 26.033 32.9498 26.0472 32.902 26.0472C32.8542 26.0472 32.8074 26.033 32.7677 26.0064C32.7279 25.9798 32.6969 25.9421 32.6786 25.8979C32.6603 25.8537 32.6555 25.8051 32.6648 25.7582C32.6741 25.7113 32.6971 25.6682 32.7309 25.6344C32.7534 25.6119 32.7801 25.5941 32.8094 25.5819C32.8388 25.5697 32.8702 25.5635 32.902 25.5635C32.9338 25.5635 32.9652 25.5697 32.9946 25.5819C33.0239 25.5941 33.0506 25.6119 33.0731 25.6344Z" fill="#CD5867"/>
<path d="M36.2705 28.8337C36.3042 28.8676 36.3272 28.9107 36.3365 28.9576C36.3458 29.0045 36.341 29.0531 36.3226 29.0972C36.3043 29.1414 36.2733 29.1791 36.2336 29.2057C36.1938 29.2322 36.1471 29.2464 36.0993 29.2464C36.0515 29.2464 36.0047 29.2322 35.965 29.2057C35.9252 29.1791 35.8942 29.1414 35.8759 29.0972C35.8576 29.0531 35.8527 29.0045 35.862 28.9576C35.8713 28.9107 35.8943 28.8676 35.9281 28.8337C35.9505 28.8112 35.9772 28.7934 36.0066 28.7812C36.036 28.769 36.0675 28.7627 36.0993 28.7627C36.1311 28.7627 36.1626 28.769 36.1919 28.7812C36.2213 28.7934 36.248 28.8112 36.2705 28.8337Z" fill="#CD5867"/>
<path d="M36.0995 29.0045L32.9004 25.8057" stroke="#CD5867" stroke-width="0.240898" stroke-miterlimit="10"/>
<path d="M140.65 39.7823C140.048 41.3113 136.544 47.4549 135.397 46.9732C134.25 46.4914 135.892 39.5675 136.493 38.039C137.095 36.5106 139.095 34.6426 140.09 35.0591C141.084 35.4757 141.253 38.2532 140.65 39.7823Z" fill="#E7786D"/>
<path d="M129.349 54.2173C129.951 52.689 133.455 46.5451 134.602 47.0268C135.75 47.5086 134.108 54.4321 133.506 55.9611C132.904 57.4901 130.906 59.3574 129.912 58.9409C128.917 58.5243 128.747 55.7463 129.349 54.2173Z" fill="#E7786D"/>
<path d="M142.218 52.6513C140.689 52.0498 134.545 48.5458 135.027 47.3977C135.509 46.2495 142.433 47.8926 143.961 48.4941C145.489 49.0955 147.357 51.0947 146.941 52.0889C146.524 53.0831 143.746 53.2527 142.218 52.6513Z" fill="#E7786D"/>
<path d="M127.782 41.3492C129.311 41.9506 135.455 45.454 134.973 46.6022C134.491 47.7503 127.568 46.1084 126.039 45.5063C124.509 44.9043 122.643 42.9063 123.059 41.9115C123.475 40.9167 126.253 40.7471 127.782 41.3492Z" fill="#E7786D"/>
<path d="M144.048 45.3134C142.522 45.9385 135.566 47.7411 135.033 46.664C134.5 45.5869 140.592 42.0351 142.117 41.4093C143.643 40.7836 146.463 40.8501 146.926 41.7833C147.39 42.7164 145.574 44.6825 144.048 45.3134Z" fill="#E7786D"/>
<path d="M125.952 48.6871C127.478 48.0611 134.434 46.2584 134.967 47.3365C135.5 48.4146 129.407 51.9645 127.884 52.5905C126.36 53.2165 123.538 53.1499 123.074 52.2164C122.61 51.2829 124.426 49.3131 125.952 48.6871Z" fill="#E7786D"/>
<path d="M136.687 56.0467C136.062 54.5202 134.258 47.5649 135.336 47.0328C136.414 46.5007 139.964 52.5914 140.59 54.1178C141.217 55.6443 141.149 58.4629 140.216 58.9264C139.284 59.3899 137.313 57.5725 136.687 56.0467Z" fill="#E7786D"/>
<path d="M133.313 37.9531C133.938 39.4795 135.742 46.4344 134.664 46.9671C133.586 47.4998 130.036 41.4082 129.41 39.8819C128.783 38.3555 128.851 35.537 129.784 35.0736C130.716 34.6101 132.686 36.4274 133.313 37.9531Z" fill="#E7786D"/>
<path d="M137 38.2017C137 39.8699 136.105 47 135 47C133.895 47 133 39.8699 133 38.2017C133 36.5336 134.043 34 135 34C135.957 34 137 36.5336 137 38.2017Z" fill="#E8867D"/>
<path d="M133 55.7961C133 54.1284 133.895 47 135 47C136.105 47 137 54.1284 137 55.7961C137 57.4639 135.957 60 135 60C134.043 60 133 57.4639 133 55.7961Z" fill="#E8867D"/>
<path d="M143.796 49C142.128 49 135 48.1047 135 47.0003C135 45.8959 142.128 45 143.796 45C145.465 45 148 46.0433 148 47.0003C148 47.9572 145.464 49 143.796 49Z" fill="#E8867D"/>
<path d="M126.202 45C127.87 45 135 45.8953 135 47.0003C135 48.1052 127.87 49 126.202 49C124.534 49 122 47.9567 122 47.0003C122 46.0438 124.534 45 126.202 45Z" fill="#E8867D"/>
<path d="M142.545 42.0305C141.446 43.2648 136.026 47.7906 135.13 46.8798C134.235 45.969 138.21 39.9623 139.31 38.7325C140.41 37.5027 142.923 36.4907 143.697 37.2779C144.471 38.065 143.644 40.7988 142.545 42.0305Z" fill="#E8867D"/>
<path d="M127.455 51.9689C128.554 50.7366 133.975 46.2088 134.87 47.1203C135.765 48.0317 131.789 54.0378 130.69 55.2676C129.591 56.4973 127.077 57.5093 126.303 56.7221C125.529 55.935 126.355 53.2006 127.455 51.9689Z" fill="#E8867D"/>
<path d="M139.969 54.5456C138.738 53.4459 134.21 48.0233 135.12 47.1298C136.03 46.2363 142.037 50.2105 143.267 51.3102C144.497 52.4098 145.509 54.9225 144.723 55.6968C143.936 56.471 141.2 55.6446 139.969 54.5456Z" fill="#E8867D"/>
<path d="M130.03 39.4542C131.262 40.5539 135.791 45.9767 134.88 46.8702C133.969 47.7638 127.962 43.7894 126.733 42.6897C125.504 41.59 124.491 39.0767 125.277 38.303C126.064 37.5293 128.799 38.3551 130.03 39.4542Z" fill="#E8867D"/>
<path d="M137 47.5C137 47.7967 136.883 48.0867 136.663 48.3334C136.443 48.5801 136.131 48.7723 135.765 48.8859C135.4 48.9994 134.998 49.0291 134.61 48.9711C134.222 48.9132 133.865 48.7703 133.586 48.5605C133.306 48.3507 133.115 48.0833 133.038 47.7923C132.961 47.5013 133.001 47.1997 133.152 46.9256C133.304 46.6515 133.56 46.4173 133.889 46.2526C134.218 46.0878 134.605 45.9999 135.001 46C135.263 46 135.523 46.0388 135.766 46.1142C136.009 46.1896 136.229 46.3001 136.415 46.4394C136.6 46.5787 136.748 46.744 136.848 46.926C136.948 47.108 137 47.303 137 47.5Z" fill="white"/>
<path d="M136.49 20.1923C136.49 21.0627 135.823 24.783 135 24.783C134.177 24.783 133.51 21.0627 133.51 20.1923C133.51 18.7017 134.287 18 135 18C135.713 18 136.49 18.7885 136.49 20.1923Z" fill="#FACB56"/>
<path d="M133.51 29.8065C133.51 28.9361 134.177 25.2158 135 25.2158C135.823 25.2158 136.49 28.9361 136.49 29.8065C136.49 31.2967 135.713 32.0004 135 32.0004C134.287 32.0004 133.51 31.2106 133.51 29.8065Z" fill="#FACB56"/>
<path d="M139.807 26.489C138.937 26.489 135.217 25.822 135.217 24.9987C135.217 24.1755 138.937 23.5088 139.807 23.5088C141.298 23.5088 142.001 24.2858 142.001 24.9987C142.001 25.7116 141.211 26.489 139.807 26.489Z" fill="#FACB56"/>
<path d="M130.194 23.5088C131.064 23.5088 134.785 24.1758 134.785 24.9987C134.785 25.8216 131.064 26.489 130.194 26.489C128.704 26.489 128 25.7116 128 24.9987C128 24.2858 128.79 23.5088 130.194 23.5088Z" fill="#FACB56"/>
<path d="M139.453 22.6537C138.838 23.2694 135.735 25.428 135.153 24.8477C134.571 24.2675 136.731 21.1631 137.347 20.5478C138.401 19.4938 139.447 19.5471 139.951 20.0511C140.455 20.5551 140.446 21.6612 139.453 22.6537Z" fill="#FACB56"/>
<path d="M130.547 27.3438C131.163 26.7285 134.265 24.5695 134.847 25.1498C135.429 25.7301 133.27 28.834 132.653 29.4497C131.599 30.5034 130.553 30.4504 130.049 29.9461C129.545 29.4418 129.555 28.3366 130.547 27.3438Z" fill="#FACB56"/>
<path d="M137.347 29.4521C136.731 28.8365 134.572 25.7342 135.153 25.1523C135.733 24.5704 138.837 26.7293 139.453 27.3462C140.506 28.4 140.453 29.4462 139.949 29.9502C139.445 30.4541 138.339 30.4446 137.347 29.4521Z" fill="#FACB56"/>
<path d="M132.655 20.5465C133.271 21.1618 135.43 24.2644 134.849 24.8463C134.269 25.4282 131.165 23.2693 130.55 22.6524C129.496 21.5986 129.549 20.5524 130.053 20.0484C130.557 19.5445 131.663 19.5536 132.655 20.5465Z" fill="#FACB56"/>
<path d="M135.995 24.9994C135.996 25.1959 135.937 25.3881 135.828 25.5516C135.719 25.7151 135.564 25.8425 135.382 25.9178C135.201 25.9931 135.001 26.0128 134.808 25.9745C134.615 25.9362 134.438 25.8415 134.299 25.7026C134.16 25.5636 134.065 25.3865 134.027 25.1937C133.989 25.0009 134.008 24.8011 134.083 24.6194C134.159 24.4378 134.286 24.2826 134.449 24.1734C134.613 24.0642 134.805 24.0059 135.002 24.0059C135.265 24.0059 135.518 24.1105 135.704 24.2968C135.891 24.4831 135.995 24.7358 135.995 24.9994Z" fill="#F7AB64"/>
<path d="M50.0221 9.92005C50.087 10.6551 49.681 13.7498 48.9834 13.7498C48.2857 13.7498 47.9707 10.7314 47.9707 9.99333C47.9707 9.4425 48.3789 8 48.9834 8C49.5878 8 49.957 9.18617 50.0221 9.92005Z" fill="#E85499"/>
<path d="M47.9775 18.0807C47.9124 17.3457 48.3183 14.251 49.0163 14.251C49.7142 14.251 50.0298 17.2696 50.0298 18.0088C50.0298 18.5597 49.6213 20.0021 49.0171 20.0021C48.413 20.0021 48.0424 18.8146 47.9775 18.0807Z" fill="#E85499"/>
<path d="M53.0794 15.0228C52.3447 15.088 49.25 14.682 49.25 13.9841C49.25 13.2861 52.2686 12.9717 53.0064 12.9717C53.5573 12.9717 54.9998 13.3799 54.9998 13.9841C54.9998 14.5882 53.8139 14.958 53.0794 15.0228Z" fill="#E85499"/>
<path d="M44.9201 12.9785C45.6551 12.9134 48.7498 13.3193 48.7498 14.0173C48.7498 14.7152 45.7311 15.0302 44.9933 15.0302C44.4422 15.0302 43 14.6217 43 14.0173C43 13.4128 44.185 13.0433 44.9201 12.9785Z" fill="#E85499"/>
<path d="M46.8373 10.3922C47.4028 10.8661 49.3043 13.3401 48.811 13.8348C48.3177 14.3294 45.9606 12.4164 45.4386 11.8945C45.0492 11.5051 44.3176 10.1962 44.7452 9.76866C45.1728 9.34107 46.2722 9.91914 46.8373 10.3922Z" fill="#E85499"/>
<path d="M51.162 17.6081C50.5963 17.1342 48.695 14.6602 49.1883 14.1658C49.6816 13.6714 52.0388 15.5842 52.5604 16.1061C52.9498 16.4958 53.6817 17.8044 53.2541 18.2319C52.8265 18.6595 51.7268 18.0812 51.162 17.6081Z" fill="#E85499"/>
<path d="M52.6071 11.838C52.1332 12.4038 49.6592 14.3053 49.1648 13.812C48.6704 13.3187 50.5835 10.9615 51.1051 10.4399C51.4948 10.0502 52.8037 9.31859 53.231 9.74617C53.6583 10.1738 53.0805 11.2732 52.6071 11.838Z" fill="#E85499"/>
<path d="M45.3924 16.1639C45.8661 15.5981 48.3403 13.6972 48.8347 14.1902C49.3291 14.6832 47.4164 17.0406 46.8945 17.5623C46.5051 17.952 45.1962 18.6836 44.7686 18.2566C44.341 17.8295 44.9194 16.729 45.3924 16.1639Z" fill="#E85499"/>
<path d="M49.8251 14.0014C49.8251 14.168 49.7757 14.3309 49.6832 14.4694C49.5906 14.6079 49.4591 14.7158 49.3052 14.7796C49.1513 14.8433 48.9819 14.86 48.8186 14.8275C48.6552 14.795 48.5051 14.7148 48.3873 14.597C48.2695 14.4792 48.1893 14.3291 48.1568 14.1657C48.1243 14.0024 48.141 13.833 48.2047 13.6791C48.2685 13.5252 48.3764 13.3937 48.5149 13.3011C48.6535 13.2086 48.8163 13.1592 48.9829 13.1592C49.2063 13.1592 49.4205 13.2479 49.5784 13.4059C49.7364 13.5638 49.8251 13.7781 49.8251 14.0014Z" fill="#F39E9E"/>
<path fill-rule="evenodd" clip-rule="evenodd" d="M97.0986 8.0184C94.5849 8.01618 92.1025 8.5759 89.833 9.65662C87.5635 10.7373 85.5643 12.3117 83.9816 14.2646C81.7886 11.5508 78.8079 9.58408 75.4502 8.63539C72.0926 7.68669 68.5234 7.80275 65.2344 8.96757C61.9455 10.1324 59.0989 12.2886 57.0868 15.1391C55.0747 17.9896 53.9962 21.394 54 24.8831V52.3662C54 54.3541 54.7897 56.2606 56.1954 57.6663C57.601 59.0719 59.5075 59.8616 61.4954 59.8616V24.8831C61.4954 22.3982 62.4825 20.0151 64.2396 18.258C65.9967 16.5009 68.3798 15.5138 70.8647 15.5138C73.3496 15.5138 75.7327 16.5009 77.4897 18.258C79.2468 20.0151 80.2339 22.3982 80.2339 24.8831V46.7447C80.2339 47.7386 80.6288 48.6919 81.3316 49.3947C82.0344 50.0975 82.9877 50.4924 83.9816 50.4924C84.9756 50.4924 85.9288 50.0975 86.6317 49.3947C87.3345 48.6919 87.7293 47.7386 87.7293 46.7447V24.8831C87.7293 22.3982 88.7164 20.0151 90.4735 18.258C92.2306 16.5009 94.6137 15.5138 97.0986 15.5138C99.5835 15.5138 101.967 16.5009 103.724 18.258C105.481 20.0151 106.468 22.3982 106.468 24.8831V59.8616C108.456 59.8616 110.362 59.0719 111.768 57.6663C113.174 56.2606 113.963 54.3541 113.963 52.3662V24.8831C113.963 20.4103 112.186 16.1207 109.024 12.9579C105.861 9.79521 101.571 8.0184 97.0986 8.0184V8.0184Z" fill="#1955A0"/>
<path fill-rule="evenodd" clip-rule="evenodd" d="M93.3511 20.5107V45.4954C93.3511 47.9803 92.364 50.3634 90.6069 52.1205C88.8498 53.8776 86.4667 54.8647 83.9818 54.8647C81.497 54.8647 79.1139 53.8776 77.3568 52.1205C75.5997 50.3634 74.6126 47.9803 74.6126 45.4954V20.5107C72.6247 20.5107 70.7182 21.3004 69.3125 22.7061C67.9069 24.1118 67.1172 26.0182 67.1172 28.0061V45.4954C67.1172 49.9682 68.894 54.2578 72.0567 57.4205C75.2195 60.5833 79.5091 62.3601 83.9818 62.3601C88.4546 62.3601 92.7442 60.5833 95.907 57.4205C99.0697 54.2578 100.847 49.9682 100.847 45.4954V28.0061C100.847 26.0182 100.057 24.1118 98.6512 22.7061C97.2455 21.3004 95.339 20.5107 93.3511 20.5107V20.5107Z" fill="#E61D4D"/>
<path d="M16.7947 68.4986V74.7265C16.8377 75.3037 16.7594 75.8835 16.565 76.4287C16.3706 76.9739 16.0644 77.4725 15.6659 77.8923C14.7484 78.6428 13.5787 79.0142 12.3963 78.9303C11.2144 79.0102 10.0461 78.6393 9.12667 77.8923C8.73319 77.4696 8.43104 76.9703 8.23906 76.4256C8.04708 75.8809 7.96939 75.3025 8.01084 74.7265V68.4986H10.1127V74.6097C10.0594 75.2903 10.2528 75.9673 10.6577 76.517C11.1277 76.919 11.7259 77.14 12.3444 77.14C12.9629 77.14 13.5611 76.919 14.0311 76.517C14.436 75.9673 14.6294 75.2903 14.5761 74.6097V68.4727L16.7947 68.4986Z" fill="#1955A0"/>
<path d="M30.1197 68.498V78.774H27.6545L24.0605 72.7278L23.1782 71.0541H23.1652L23.2171 72.8316V78.774H21.2969V68.498H23.7361L27.3301 74.5183L28.2254 76.218H28.2513L28.1865 74.4405V68.498H30.1197Z" fill="#1955A0"/>
<path d="M36.9819 68.498H34.8281V78.774H36.9819V68.498Z" fill="#1955A0"/>
<path d="M49.7914 68.498V70.2237H46.3531V78.774H44.2123V70.2237H40.748V68.498H49.7914Z" fill="#1955A0"/>
<path d="M53.5762 78.774V68.498H61.2832V70.2237H55.717V72.7797H60.1025V74.4275H55.717V77.0484H61.5037V78.774H53.5762Z" fill="#1955A0"/>
<path d="M73.1562 69.8348C72.6541 69.3761 72.0638 69.0246 71.4214 68.8015C70.7789 68.5784 70.0978 68.4885 69.4195 68.5373H65.4492V78.8133H69.4195C70.0978 78.8621 70.7789 78.7722 71.4214 78.5491C72.0638 78.326 72.6541 77.9745 73.1562 77.5158C74.0129 76.4339 74.479 75.0943 74.479 73.7142C74.479 72.3342 74.0129 70.9946 73.1562 69.9126V69.8348ZM71.5084 76.1924C71.2326 76.4938 70.8919 76.7287 70.5121 76.8793C70.1322 77.0299 69.7231 77.0923 69.3157 77.0617H67.603V70.211H69.3157C69.7241 70.1831 70.1335 70.2479 70.5132 70.4007C70.893 70.5535 71.2332 70.7903 71.5084 71.0933C72.0611 71.8407 72.328 72.7612 72.261 73.6883C72.3064 74.5848 72.0405 75.4694 71.5084 76.1924V76.1924Z" fill="#1955A0"/>
<path d="M96.6302 68.498V78.774H94.697V73.4155L94.8008 70.4183H94.7619L91.9204 78.774H90.1558L87.3273 70.4183H87.2884L87.4052 73.4155V78.774H85.459V68.498H88.5729L90.4153 74.1031L91.077 76.4256H91.103L91.7777 74.1161L93.6071 68.498H96.6302Z" fill="#1955A0"/>
<path d="M106.489 68.498H103.894L100.145 78.774H102.337L103.181 76.2699H107.073L107.929 78.774H110.161L106.489 68.498ZM103.739 74.674L104.738 71.7547L105.166 70.2237L105.633 71.7807L106.593 74.674H103.739Z" fill="#1955A0"/>
<path d="M119.902 74.5057C120.547 74.3538 121.116 73.9786 121.511 73.4466C121.905 72.9146 122.098 72.2602 122.056 71.5994C122.073 71.1704 121.991 70.7433 121.815 70.3516C121.64 69.9599 121.376 69.6142 121.044 69.3418C120.266 68.7436 119.299 68.4444 118.319 68.4984H113.791V78.7744H115.906V74.882H117.8L120.214 78.7744H122.627L119.902 74.5057ZM118.073 73.2082H115.906V70.2241H118.073C119.266 70.2241 119.863 70.7171 119.863 71.7161C119.863 72.7152 119.266 73.1953 118.073 73.1953V73.2082Z" fill="#1955A0"/>
<path d="M128.545 68.498V73.3765L132.775 68.498H135.266L131.568 72.6889L135.383 78.774H132.931L130.011 74.0772L128.545 75.738V78.774H126.404V68.498H128.545Z" fill="#1955A0"/>
<path d="M138.99 78.774V68.498H146.697V70.2237H141.144V72.7797H145.517V74.4275H141.144V77.0484H146.918V78.774H138.99Z" fill="#1955A0"/>
<path d="M159 68.498V70.2237H155.562V78.774H153.408V70.2237H149.957V68.498H159Z" fill="#1955A0"/>
</svg>
