<svg width="24" height="24" viewBox="0 0 24 24" fill="none" xmlns="http://www.w3.org/2000/svg">
<path d="M11.6787 2C9.75385 2 7.87223 2.58649 6.27179 3.6853C4.67135 4.78412 3.42396 6.3459 2.68735 8.17317C1.95075 10.0004 1.75802 12.0111 2.13354 13.9509C2.50905 15.8907 3.43595 17.6725 4.79702 19.0711C6.15808 20.4696 7.89218 21.422 9.78003 21.8079C11.6679 22.1937 13.6247 21.9957 15.403 21.2388C17.1813 20.4819 18.7013 19.2002 19.7707 17.5557C20.84 15.9112 21.4108 13.9778 21.4108 12C21.4108 10.6868 21.1591 9.38642 20.67 8.17317C20.1809 6.95991 19.4641 5.85752 18.5603 4.92893C17.6566 4.00035 16.5838 3.26375 15.403 2.7612C14.2223 2.25866 12.9567 2 11.6787 2ZM11.6787 20C10.1388 20 8.63352 19.5308 7.35317 18.6518C6.07281 17.7727 5.0749 16.5233 4.48562 15.0615C3.89634 13.5997 3.74215 11.9911 4.04257 10.4393C4.34298 8.88743 5.0845 7.46197 6.17335 6.34315C7.2622 5.22433 8.64948 4.4624 10.1598 4.15372C11.67 3.84504 13.2355 4.00346 14.6581 4.60896C16.0808 5.21447 17.2968 6.23984 18.1523 7.55544C19.0078 8.87103 19.4644 10.4177 19.4644 12C19.4644 14.1217 18.6441 16.1566 17.184 17.6569C15.7239 19.1571 13.7436 20 11.6787 20ZM13.7224 9.63L12.6519 10.27V7C12.6519 6.73478 12.5494 6.48043 12.3668 6.29289C12.1843 6.10536 11.9368 6 11.6787 6C11.4206 6 11.173 6.10536 10.9905 6.29289C10.808 6.48043 10.7055 6.73478 10.7055 7V12C10.7055 12 10.7055 12 10.7055 12.06C10.7009 12.1266 10.7009 12.1934 10.7055 12.26C10.7205 12.3214 10.7401 12.3816 10.7639 12.44C10.7639 12.44 10.7639 12.44 10.7639 12.5C10.8103 12.5709 10.8624 12.6378 10.9196 12.7C10.9982 12.7801 11.0906 12.8445 11.1921 12.89H11.2699C11.3967 12.957 11.5362 12.9945 11.6787 13C11.7921 12.9967 11.9041 12.973 12.0096 12.93H12.0972H12.1653L14.6956 11.43C14.9202 11.2974 15.0843 11.0786 15.1518 10.8216C15.2194 10.5647 15.1848 10.2907 15.0557 10.06C14.9267 9.82926 14.7137 9.66065 14.4637 9.59126C14.2136 9.52188 13.947 9.55739 13.7224 9.69V9.63Z" fill="#BFC6E0"/>
</svg>
