<svg width="23" height="20" viewBox="0 0 23 20" fill="none" xmlns="http://www.w3.org/2000/svg">
<path d="M0.973145 10.5V15.5C0.973145 15.7652 1.07568 16.0196 1.25819 16.2071C1.44071 16.3946 1.68825 16.5 1.94636 16.5H2.91957C2.91957 17.2956 3.22718 18.0587 3.77472 18.6213C4.32226 19.1839 5.06488 19.5 5.83922 19.5C6.61355 19.5 7.35618 19.1839 7.90372 18.6213C8.45125 18.0587 8.75886 17.2956 8.75886 16.5H14.5981C14.5981 17.2956 14.9057 18.0587 15.4533 18.6213C16.0008 19.1839 16.7434 19.5 17.5178 19.5C18.2921 19.5 19.0347 19.1839 19.5823 18.6213C20.1298 18.0587 20.4374 17.2956 20.4374 16.5H21.4106C21.6688 16.5 21.9163 16.3946 22.0988 16.2071C22.2813 16.0196 22.3839 15.7652 22.3839 15.5V3.5C22.3839 2.70435 22.0763 1.94129 21.5287 1.37868C20.9812 0.816071 20.2386 0.5 19.4642 0.5H10.7053C9.93095 0.5 9.18833 0.816071 8.64079 1.37868C8.09325 1.94129 7.78564 2.70435 7.78564 3.5V5.5H5.83922C5.38596 5.5 4.93892 5.60844 4.53351 5.81672C4.1281 6.025 3.77546 6.32741 3.5035 6.7L1.16779 9.9C1.13932 9.94347 1.11643 9.99052 1.09966 10.04L1.04127 10.15C0.998318 10.2615 0.975242 10.3801 0.973145 10.5ZM16.5446 16.5C16.5446 16.3022 16.6016 16.1089 16.7086 15.9444C16.8155 15.78 16.9675 15.6518 17.1454 15.5761C17.3232 15.5004 17.5189 15.4806 17.7077 15.5192C17.8964 15.5578 18.0698 15.653 18.206 15.7929C18.3421 15.9327 18.4347 16.1109 18.4723 16.3049C18.5099 16.4989 18.4906 16.7 18.4169 16.8827C18.3433 17.0654 18.2185 17.2216 18.0585 17.3315C17.8984 17.4414 17.7103 17.5 17.5178 17.5C17.2597 17.5 17.0121 17.3946 16.8296 17.2071C16.6471 17.0196 16.5446 16.7652 16.5446 16.5ZM9.73207 3.5C9.73207 3.23478 9.83461 2.98043 10.0171 2.79289C10.1996 2.60536 10.4472 2.5 10.7053 2.5H19.4642C19.7223 2.5 19.9699 2.60536 20.1524 2.79289C20.3349 2.98043 20.4374 3.23478 20.4374 3.5V14.5H19.6783C19.4047 14.1906 19.0711 13.9435 18.6991 13.7743C18.327 13.6052 17.9246 13.5178 17.5178 13.5178C17.1109 13.5178 16.7086 13.6052 16.3365 13.7743C15.9645 13.9435 15.6309 14.1906 15.3573 14.5H9.73207V3.5ZM7.78564 9.5H3.89279L5.06064 7.9C5.1513 7.7758 5.26884 7.675 5.40398 7.60557C5.53912 7.53615 5.68813 7.5 5.83922 7.5H7.78564V9.5ZM4.866 16.5C4.866 16.3022 4.92308 16.1089 5.03002 15.9444C5.13696 15.78 5.28895 15.6518 5.46678 15.5761C5.64461 15.5004 5.8403 15.4806 6.02908 15.5192C6.21787 15.5578 6.39128 15.653 6.52738 15.7929C6.66349 15.9327 6.75618 16.1109 6.79373 16.3049C6.83128 16.4989 6.81201 16.7 6.73835 16.8827C6.66469 17.0654 6.53995 17.2216 6.3799 17.3315C6.21986 17.4414 6.0317 17.5 5.83922 17.5C5.5811 17.5 5.33356 17.3946 5.15105 17.2071C4.96854 17.0196 4.866 16.7652 4.866 16.5ZM2.91957 11.5H7.78564V14.28C7.21128 13.7526 6.45734 13.4797 5.68807 13.5209C4.9188 13.5621 4.19655 13.914 3.67868 14.5H2.91957V11.5Z" fill="#BFC6E0"/>
</svg>
