<svg width="19" height="26" viewBox="0 0 19 26" fill="none" xmlns="http://www.w3.org/2000/svg">
<path fill-rule="evenodd" clip-rule="evenodd" d="M5.55789 11.1172C4.94398 11.1172 4.44631 10.6195 4.44631 10.0056L4.44631 5.00351C4.44631 2.24093 6.68583 0.00141296 9.44841 0.0014144C12.211 0.00141393 14.4505 2.24093 14.4505 5.00351L14.4505 10.0056C14.4505 10.6195 13.9528 11.1172 13.3389 11.1172C12.725 11.1172 12.2274 10.6195 12.2274 10.0056L12.2274 5.00351C12.2274 3.46874 10.9832 2.22457 9.44841 2.22457C7.91364 2.22457 6.66947 3.46874 6.66947 5.00351L6.66947 10.0056C6.66947 10.6195 6.1718 11.1172 5.55789 11.1172Z" fill="#0B1331"/>
<path fill-rule="evenodd" clip-rule="evenodd" d="M5.48472 6.48438C5.50903 6.48438 5.53342 6.48438 5.55789 6.48438L13.4121 6.48438C14.3975 6.48432 15.2465 6.48427 15.9265 6.57569C16.6551 6.67365 17.3536 6.89457 17.9201 7.4611C18.4866 8.02763 18.7076 8.72609 18.8055 9.45475C18.8969 10.1347 18.8969 10.9837 18.8968 11.9691L18.8968 16.1886C18.8968 17.9558 18.8969 19.3807 18.763 20.5133C18.6244 21.6856 18.3293 22.6887 17.6352 23.5345C17.4043 23.8159 17.1462 24.0739 16.8648 24.3049C16.0191 24.999 15.0159 25.2941 13.8437 25.4326C12.711 25.5665 11.2862 25.5665 9.51893 25.5665H9.3779C7.61064 25.5665 6.1858 25.5665 5.05313 25.4326C3.88089 25.2941 2.87777 24.999 2.03201 24.3049C1.75059 24.0739 1.49254 23.8159 1.26159 23.5345C0.567485 22.6887 0.272412 21.6856 0.133849 20.5133C-3.7575e-05 19.3807 -1.87545e-05 17.9558 4.83232e-06 16.1886L5.36236e-06 12.0423C5.36236e-06 12.0178 4.03726e-06 11.9934 2.71215e-06 11.9691C-5.26772e-05 10.9837 -0.000100252 10.1347 0.0913109 9.45475C0.189276 8.72609 0.410197 8.02763 0.976726 7.4611C1.54325 6.89457 2.24171 6.67365 2.97037 6.57569C3.65028 6.48427 4.49932 6.48432 5.48472 6.48438ZM3.2666 8.77902C2.78447 8.84384 2.63335 8.94849 2.54873 9.03311C2.46412 9.11773 2.35946 9.26884 2.29464 9.75098C2.22552 10.2651 2.22316 10.9628 2.22316 12.0423V16.1181C2.22316 17.9724 2.22498 19.2655 2.34163 20.2524C2.45539 21.2147 2.66495 21.7401 2.98011 22.1241C3.11868 22.293 3.27351 22.4478 3.44236 22.5864C3.82639 22.9015 4.35174 23.1111 5.3141 23.2248C6.30099 23.3415 7.59404 23.3433 9.44841 23.3433C11.3028 23.3433 12.5958 23.3415 13.5827 23.2248C14.5451 23.1111 15.0704 22.9015 15.4545 22.5864C15.6233 22.4478 15.7781 22.293 15.9167 22.1241C16.2319 21.7401 16.4414 21.2147 16.5552 20.2524C16.6718 19.2655 16.6737 17.9724 16.6737 16.118V12.0423C16.6737 10.9628 16.6713 10.2651 16.6022 9.75098C16.5374 9.26884 16.4327 9.11773 16.3481 9.03311C16.2635 8.94849 16.1124 8.84384 15.6302 8.77902C15.1161 8.7099 14.4184 8.70754 13.3389 8.70754H5.55789C4.47846 8.70754 3.78071 8.7099 3.2666 8.77902Z" fill="#0B1331"/>
</svg>
