<svg width="36" height="36" viewBox="0 0 36 36" fill="none" xmlns="http://www.w3.org/2000/svg">
<circle cx="18" cy="18" r="18" fill="#BA405E"/>
<path d="M11.7 14.6667H24.3C24.4857 14.6667 24.6637 14.5789 24.795 14.4226C24.9263 14.2663 25 14.0543 25 13.8333C25 13.6123 24.9263 13.4004 24.795 13.2441C24.6637 13.0878 24.4857 13 24.3 13H11.7C11.5143 13 11.3363 13.0878 11.205 13.2441C11.0737 13.4004 11 13.6123 11 13.8333C11 14.0543 11.0737 14.2663 11.205 14.4226C11.3363 14.5789 11.5143 14.6667 11.7 14.6667ZM24.3 21.3333H11.7C11.5143 21.3333 11.3363 21.4211 11.205 21.5774C11.0737 21.7337 11 21.9457 11 22.1667C11 22.3877 11.0737 22.5996 11.205 22.7559C11.3363 22.9122 11.5143 23 11.7 23H24.3C24.4857 23 24.6637 22.9122 24.795 22.7559C24.9263 22.5996 25 22.3877 25 22.1667C25 21.9457 24.9263 21.7337 24.795 21.5774C24.6637 21.4211 24.4857 21.3333 24.3 21.3333ZM24.3 17.1667H11.7C11.5143 17.1667 11.3363 17.2545 11.205 17.4107C11.0737 17.567 11 17.779 11 18C11 18.221 11.0737 18.433 11.205 18.5893C11.3363 18.7455 11.5143 18.8333 11.7 18.8333H24.3C24.4857 18.8333 24.6637 18.7455 24.795 18.5893C24.9263 18.433 25 18.221 25 18C25 17.779 24.9263 17.567 24.795 17.4107C24.6637 17.2545 24.4857 17.1667 24.3 17.1667Z" fill="white"/>
</svg>
