<svg width="151" height="55" viewBox="0 0 151 55" fill="none" xmlns="http://www.w3.org/2000/svg">
<path fill-rule="evenodd" clip-rule="evenodd" d="M89.0986 0.0183999C86.5849 0.0161828 84.1025 0.575904 81.833 1.65662C79.5635 2.73733 77.5643 4.31171 75.9816 6.26457C73.7886 3.55083 70.8079 1.58408 67.4502 0.635386C64.0926 -0.313311 60.5234 -0.197249 57.2344 0.967574C53.9455 2.1324 51.0989 4.28864 49.0868 7.13911C47.0747 9.98959 45.9962 13.394 46 16.8831V44.3662C46 46.3541 46.7897 48.2606 48.1954 49.6663C49.601 51.0719 51.5075 51.8616 53.4954 51.8616V16.8831C53.4954 14.3982 54.4825 12.0151 56.2396 10.258C57.9967 8.50092 60.3798 7.51381 62.8647 7.51381C65.3496 7.51381 67.7327 8.50092 69.4897 10.258C71.2468 12.0151 72.2339 14.3982 72.2339 16.8831V38.7447C72.2339 39.7386 72.6288 40.6919 73.3316 41.3947C74.0344 42.0975 74.9877 42.4924 75.9816 42.4924C76.9756 42.4924 77.9288 42.0975 78.6317 41.3947C79.3345 40.6919 79.7293 39.7386 79.7293 38.7447V16.8831C79.7293 14.3982 80.7164 12.0151 82.4735 10.258C84.2306 8.50092 86.6137 7.51381 89.0986 7.51381C91.5835 7.51381 93.9666 8.50092 95.7237 10.258C97.4807 12.0151 98.4678 14.3982 98.4678 16.8831V51.8616C100.456 51.8616 102.362 51.0719 103.768 49.6663C105.174 48.2606 105.963 46.3541 105.963 44.3662V16.8831C105.963 12.4103 104.186 8.12068 101.024 4.95795C97.861 1.79521 93.5714 0.0183999 89.0986 0.0183999Z" fill="white"/>
<path fill-rule="evenodd" clip-rule="evenodd" d="M85.3507 12.5117V37.4964C85.3507 39.9813 84.3636 42.3644 82.6066 44.1215C80.8495 45.8785 78.4664 46.8657 75.9815 46.8657C73.4966 46.8657 71.1135 45.8785 69.3564 44.1215C67.5993 42.3644 66.6122 39.9813 66.6122 37.4964V12.5117C64.6243 12.5117 62.7178 13.3014 61.3122 14.7071C59.9065 16.1127 59.1168 18.0192 59.1168 20.0071V37.4964C59.1168 41.9692 60.8936 46.2588 64.0564 49.4215C67.2191 52.5843 71.5087 54.3611 75.9815 54.3611C80.4543 54.3611 84.7439 52.5843 87.9066 49.4215C91.0693 46.2588 92.8461 41.9692 92.8461 37.4964V20.0071C92.8461 18.0192 92.0565 16.1127 90.6508 14.7071C89.2451 13.3014 87.3386 12.5117 85.3507 12.5117Z" fill="white"/>
</svg>
