<svg width="20" height="20" viewBox="0 0 20 20" fill="none" xmlns="http://www.w3.org/2000/svg">
<rect width="20" height="20" rx="10" fill="white"/>
<rect x="0.25" y="0.25" width="19.5" height="19.5" rx="9.75" stroke="#BFC6E0" stroke-opacity="0.4" stroke-width="0.5"/>
<path d="M13.9021 13.4672C13.9323 13.4954 13.9565 13.5293 13.9734 13.5671C13.9902 13.6048 13.9992 13.6456 14 13.6869C14.0007 13.7282 13.9931 13.7692 13.9776 13.8075C13.9621 13.8459 13.9391 13.8807 13.9099 13.9099C13.8807 13.9391 13.8459 13.9621 13.8075 13.9776C13.7692 13.9931 13.7282 14.0007 13.6869 14C13.6456 13.9992 13.6048 13.9902 13.5671 13.9734C13.5293 13.9565 13.4954 13.9323 13.4672 13.9021L9.99233 10.4277L6.51745 13.9021C6.45912 13.9564 6.38198 13.986 6.30226 13.9846C6.22255 13.9832 6.1465 13.9509 6.09012 13.8945C6.03375 13.8382 6.00145 13.7621 6.00005 13.6824C5.99864 13.6027 6.02823 13.5255 6.08258 13.4672L9.55694 9.99233L6.08258 6.51745C6.02823 6.45912 5.99864 6.38198 6.00005 6.30226C6.00145 6.22255 6.03375 6.1465 6.09012 6.09012C6.1465 6.03375 6.22255 6.00145 6.30226 6.00005C6.38198 5.99864 6.45912 6.02823 6.51745 6.08258L9.99233 9.55694L13.4672 6.08258C13.5255 6.02823 13.6027 5.99864 13.6824 6.00005C13.7621 6.00145 13.8382 6.03375 13.8945 6.09012C13.9509 6.1465 13.9832 6.22255 13.9846 6.30226C13.986 6.38198 13.9564 6.45912 13.9021 6.51745L10.4277 9.99233L13.9021 13.4672Z" fill="#D24B6C"/>
</svg>
