<svg width="20" height="20" viewBox="0 0 20 20" fill="none" xmlns="http://www.w3.org/2000/svg">
<rect width="20" height="20" rx="10" fill="#8C6CFF" fill-opacity="0.5"/>
<path d="M15.87 6.56511L8.70139 13.7338C8.63839 13.7967 8.55298 13.832 8.46393 13.832C8.37488 13.832 8.28948 13.7967 8.22647 13.7338L5.09019 10.5975C5.03083 10.5338 4.99852 10.4495 5.00005 10.3625C5.00159 10.2754 5.03685 10.1924 5.09842 10.1308C5.15999 10.0692 5.24305 10.034 5.3301 10.0324C5.41716 10.0309 5.50141 10.0632 5.56511 10.1226L8.46393 13.0208L15.3951 6.09019C15.4588 6.03083 15.5431 5.99852 15.6301 6.00005C15.7172 6.00159 15.8002 6.03685 15.8618 6.09842C15.9234 6.15999 15.9586 6.24305 15.9602 6.3301C15.9617 6.41716 15.9294 6.50141 15.87 6.56511Z" fill="white"/>
</svg>
