<svg width="16" height="12" viewBox="0 0 16 12" fill="none" xmlns="http://www.w3.org/2000/svg">
<path d="M15.8313 1.45628L5.83128 11.4563C5.74339 11.5441 5.62425 11.5934 5.50003 11.5934C5.37581 11.5934 5.25667 11.5441 5.16878 11.4563L0.793776 7.08128C0.710976 6.99242 0.665899 6.87489 0.668042 6.75345C0.670184 6.63201 0.719379 6.51615 0.805262 6.43026C0.891146 6.34438 1.00701 6.29519 1.12845 6.29304C1.24989 6.2909 1.36742 6.33598 1.45628 6.41878L5.50003 10.4617L15.1688 0.793777C15.2576 0.710977 15.3752 0.665899 15.4966 0.668042C15.618 0.670184 15.7339 0.71938 15.8198 0.805263C15.9057 0.891146 15.9549 1.00701 15.957 1.12845C15.9592 1.24989 15.9141 1.36742 15.8313 1.45628Z" fill="#0B1331"/>
</svg>
