<svg width="24" height="24" viewBox="0 0 24 24" fill="none" xmlns="http://www.w3.org/2000/svg">
<rect width="24" height="24" rx="3" fill="white" fill-opacity="0.5"/>
<path d="M17.1026 6.91355C16.5055 6.31001 15.795 5.83031 15.012 5.50194C14.229 5.17357 13.3889 5.00299 12.5399 5H12.4909C10.7694 5 9.11842 5.68386 7.90114 6.90114C6.68386 8.11842 6 9.76941 6 11.4909V15.0545C6 15.4258 6.1475 15.7819 6.41005 16.0445C6.6726 16.307 7.0287 16.4545 7.4 16.4545H8.41818C8.78948 16.4545 9.14558 16.307 9.40813 16.0445C9.67068 15.7819 9.81818 15.4258 9.81818 15.0545V12.5091C9.81818 12.1378 9.67068 11.7817 9.40813 11.5191C9.14558 11.2566 8.78948 11.1091 8.41818 11.1091H6.77636C6.87322 9.65945 7.5174 8.3008 8.57843 7.3083C9.63946 6.31579 11.038 5.76363 12.4909 5.76364H12.5342C13.981 5.77006 15.3714 6.32557 16.4243 7.31787C17.4772 8.31016 18.114 9.66522 18.2061 11.1091H16.5636C16.1923 11.1091 15.8362 11.2566 15.5737 11.5191C15.3111 11.7817 15.1636 12.1378 15.1636 12.5091V15.0545C15.1636 15.4258 15.3111 15.7819 15.5737 16.0445C15.8362 16.307 16.1923 16.4545 16.5636 16.4545H18.2182V16.5818C18.2182 17.0206 18.0439 17.4415 17.7336 17.7518C17.4233 18.062 17.0024 18.2364 16.5636 18.2364H13C12.8987 18.2364 12.8016 18.2766 12.73 18.3482C12.6584 18.4198 12.6182 18.5169 12.6182 18.6182C12.6182 18.7194 12.6584 18.8166 12.73 18.8882C12.8016 18.9598 12.8987 19 13 19H16.5636C17.205 19 17.8201 18.7452 18.2735 18.2917C18.727 17.8382 18.9818 17.2232 18.9818 16.5818V11.4909C18.985 10.6418 18.8207 9.80048 18.4982 9.01503C18.1758 8.22957 17.7015 7.51544 17.1026 6.91355ZM8.41818 11.8727C8.58696 11.8727 8.74882 11.9398 8.86816 12.0591C8.9875 12.1785 9.05455 12.3403 9.05455 12.5091V15.0545C9.05455 15.2233 8.9875 15.3852 8.86816 15.5045C8.74882 15.6239 8.58696 15.6909 8.41818 15.6909H7.4C7.23123 15.6909 7.06936 15.6239 6.95002 15.5045C6.83068 15.3852 6.76364 15.2233 6.76364 15.0545V11.8727H8.41818ZM15.9273 15.0545V12.5091C15.9273 12.3403 15.9943 12.1785 16.1137 12.0591C16.233 11.9398 16.3949 11.8727 16.5636 11.8727H18.2182V15.6909H16.5636C16.3949 15.6909 16.233 15.6239 16.1137 15.5045C15.9943 15.3852 15.9273 15.2233 15.9273 15.0545Z" fill="#7F96E6"/>
</svg>
