<svg width="24" height="24" viewBox="0 0 24 24" fill="none" xmlns="http://www.w3.org/2000/svg">
<rect width="24" height="24" rx="3" fill="white" fill-opacity="0.5"/>
<path d="M19.2177 7.84611C19.1797 7.80047 19.1321 7.76375 19.0783 7.73856C19.0246 7.71336 18.9659 7.70029 18.9065 7.70029H7.90281L7.5538 5.77633C7.51426 5.55845 7.39946 5.36137 7.22945 5.21949C7.05943 5.0776 6.84499 4.99992 6.62355 5H5.40504C5.29762 5 5.19459 5.04267 5.11863 5.11863C5.04267 5.19459 5 5.29762 5 5.40504C5 5.51247 5.04267 5.61549 5.11863 5.69145C5.19459 5.76741 5.29762 5.81009 5.40504 5.81009H6.62017C6.65214 5.80957 6.68326 5.82041 6.70799 5.84068C6.73271 5.86096 6.74944 5.88935 6.75519 5.9208L8.4773 15.3921C8.53193 15.6942 8.67914 15.9719 8.89855 16.1866C8.6336 16.3985 8.43575 16.6827 8.32894 17.0047C8.22213 17.3267 8.21093 17.6728 8.29671 18.0011C8.38248 18.3293 8.56155 18.6257 8.81225 18.8543C9.06294 19.0829 9.37452 19.2339 9.70927 19.2891C10.044 19.3443 10.3876 19.3013 10.6984 19.1653C11.0092 19.0293 11.274 18.8062 11.4606 18.5229C11.6473 18.2395 11.7478 17.9082 11.75 17.5689C11.7523 17.2297 11.6561 16.897 11.4733 16.6113H14.9985C14.7886 16.9397 14.694 17.3287 14.7297 17.7169C14.7653 18.1051 14.9292 18.4704 15.1954 18.7551C15.4617 19.0398 15.8151 19.2278 16.2 19.2895C16.5849 19.3511 16.9794 19.2828 17.3212 19.0954C17.6631 18.9081 17.9328 18.6122 18.0878 18.2546C18.2429 17.8969 18.2745 17.4978 18.1777 17.1203C18.0808 16.7427 17.861 16.4081 17.5529 16.1692C17.2449 15.9304 16.8661 15.8009 16.4762 15.8012H9.93951C9.78141 15.8012 9.62832 15.7457 9.50692 15.6444C9.38553 15.5432 9.30354 15.4025 9.27524 15.2469L9.03221 13.911H17.023C17.3709 13.9111 17.7077 13.7891 17.9748 13.5663C18.2419 13.3435 18.4223 13.034 18.4846 12.6918L19.3048 8.17757C19.3154 8.11931 19.3131 8.05944 19.298 8.00217C19.283 7.94491 19.2556 7.89163 19.2177 7.84611ZM10.9406 17.5564C10.9406 17.7433 10.8852 17.926 10.7814 18.0814C10.6775 18.2368 10.5299 18.358 10.3572 18.4295C10.1845 18.501 9.99449 18.5198 9.81116 18.4833C9.62783 18.4468 9.45943 18.3568 9.32725 18.2246C9.19508 18.0925 9.10506 17.9241 9.0686 17.7407C9.03213 17.5574 9.05085 17.3674 9.12238 17.1947C9.19391 17.022 9.31505 16.8744 9.47047 16.7705C9.62589 16.6667 9.80862 16.6113 9.99554 16.6113C10.2462 16.6113 10.4866 16.7108 10.6638 16.8881C10.8411 17.0653 10.9406 17.3057 10.9406 17.5564ZM17.4213 17.5564C17.4213 17.7433 17.3659 17.926 17.2621 18.0814C17.1582 18.2368 17.0106 18.358 16.8379 18.4295C16.6652 18.501 16.4752 18.5198 16.2919 18.4833C16.1085 18.4468 15.9401 18.3568 15.808 18.2246C15.6758 18.0925 15.5858 17.9241 15.5493 17.7407C15.5128 17.5574 15.5315 17.3674 15.6031 17.1947C15.6746 17.022 15.7957 16.8744 15.9512 16.7705C16.1066 16.6667 16.2893 16.6113 16.4762 16.6113C16.7269 16.6113 16.9673 16.7108 17.1445 16.8881C17.3218 17.0653 17.4213 17.3057 17.4213 17.5564ZM17.6873 12.5466C17.659 12.7022 17.577 12.8429 17.4556 12.9441C17.3342 13.0454 17.1811 13.1009 17.023 13.1009H8.88504L8.05065 8.51038H18.4211L17.6873 12.5466Z" fill="#7F96E6"/>
</svg>
