<svg width="40" height="40" viewBox="0 0 40 40" fill="none" xmlns="http://www.w3.org/2000/svg">
<circle cx="20" cy="20" r="20" fill="#80D9A1"/>
<path d="M24.3516 20.4307C24.3516 21.6774 24.1465 22.6003 23.7363 23.1992C23.3294 23.7982 22.7012 24.0977 21.8516 24.0977C21.028 24.0977 20.4062 23.7884 19.9863 23.1699C19.5697 22.5514 19.3613 21.6383 19.3613 20.4307C19.3613 19.1709 19.5648 18.2432 19.9717 17.6475C20.3786 17.0485 21.0052 16.749 21.8516 16.749C22.6751 16.749 23.2969 17.0615 23.7168 17.6865C24.14 18.3115 24.3516 19.2262 24.3516 20.4307ZM20.8604 20.4307C20.8604 21.3063 20.9352 21.9346 21.085 22.3154C21.238 22.693 21.4935 22.8818 21.8516 22.8818C22.2031 22.8818 22.457 22.6898 22.6133 22.3057C22.7695 21.9215 22.8477 21.2965 22.8477 20.4307C22.8477 19.555 22.7679 18.9268 22.6084 18.5459C22.4521 18.1618 22.1999 17.9697 21.8516 17.9697C21.4967 17.9697 21.2428 18.1618 21.0898 18.5459C20.9368 18.9268 20.8604 19.555 20.8604 20.4307ZM26.1129 24V16.86H28.3929C29.3129 16.86 29.9829 17.0467 30.4029 17.42C30.8296 17.7933 31.0429 18.3067 31.0429 18.96C31.0429 19.3467 30.9562 19.71 30.7829 20.05C30.6096 20.39 30.3196 20.6633 29.9129 20.87C29.5129 21.0767 28.9662 21.18 28.2729 21.18H27.6229V24H26.1129ZM25.3129 22.93V21.96H29.1629V22.93H25.3129ZM25.3129 21.18V19.94H28.2429V21.18H25.3129ZM28.1229 19.94C28.4096 19.94 28.6562 19.91 28.8629 19.85C29.0696 19.7833 29.2296 19.68 29.3429 19.54C29.4562 19.4 29.5129 19.2233 29.5129 19.01C29.5129 18.7033 29.4162 18.4767 29.2229 18.33C29.0296 18.1767 28.7262 18.1 28.3129 18.1H27.6229V19.94H28.1229Z" fill="white"/>
<g clip-path="url(#clip0_2733_41222)">
<path d="M9.36108 20.5135V22.319C9.36108 22.4148 9.39913 22.5066 9.46685 22.5744C9.53457 22.6421 9.62642 22.6801 9.7222 22.6801H10.0833C10.0833 22.9674 10.1974 23.243 10.4006 23.4462C10.6038 23.6493 10.8793 23.7635 11.1666 23.7635C11.454 23.7635 11.7295 23.6493 11.9327 23.4462C12.1358 23.243 12.25 22.9674 12.25 22.6801H14.4166C14.4166 22.9674 14.5308 23.243 14.7339 23.4462C14.9371 23.6493 15.2127 23.7635 15.5 23.7635C15.7873 23.7635 16.0628 23.6493 16.266 23.4462C16.4692 23.243 16.5833 22.9674 16.5833 22.6801H16.9444C17.0402 22.6801 17.132 22.6421 17.1998 22.5744C17.2675 22.5066 17.3055 22.4148 17.3055 22.319V17.9857C17.3055 17.6984 17.1914 17.4228 16.9882 17.2196C16.7851 17.0165 16.5095 16.9023 16.2222 16.9023H12.9722C12.6849 16.9023 12.4093 17.0165 12.2062 17.2196C12.003 17.4228 11.8889 17.6984 11.8889 17.9857V18.7079H11.1666C10.9985 18.7079 10.8326 18.7471 10.6822 18.8223C10.5317 18.8975 10.4009 19.0067 10.3 19.1412L9.43331 20.2968C9.42274 20.3125 9.41425 20.3295 9.40803 20.3473L9.38636 20.3871C9.37042 20.4273 9.36186 20.4702 9.36108 20.5135ZM15.1389 22.6801C15.1389 22.6087 15.16 22.5389 15.1997 22.4795C15.2394 22.4201 15.2958 22.3738 15.3618 22.3465C15.4278 22.3192 15.5004 22.312 15.5704 22.3259C15.6405 22.3399 15.7048 22.3743 15.7553 22.4248C15.8058 22.4753 15.8402 22.5396 15.8541 22.6097C15.8681 22.6797 15.8609 22.7523 15.8336 22.8183C15.8063 22.8843 15.76 22.9407 15.7006 22.9804C15.6412 23.0201 15.5714 23.0412 15.5 23.0412C15.4042 23.0412 15.3123 23.0032 15.2446 22.9355C15.1769 22.8677 15.1389 22.7759 15.1389 22.6801ZM12.6111 17.9857C12.6111 17.8899 12.6491 17.7981 12.7169 17.7303C12.7846 17.6626 12.8764 17.6246 12.9722 17.6246H16.2222C16.318 17.6246 16.4098 17.6626 16.4775 17.7303C16.5453 17.7981 16.5833 17.8899 16.5833 17.9857V21.9579H16.3016C16.2001 21.8462 16.0763 21.7569 15.9383 21.6959C15.8002 21.6348 15.6509 21.6032 15.5 21.6032C15.349 21.6032 15.1997 21.6348 15.0617 21.6959C14.9236 21.7569 14.7998 21.8462 14.6983 21.9579H12.6111V17.9857ZM11.8889 20.1523H10.4444L10.8778 19.5746C10.9114 19.5297 10.955 19.4933 11.0051 19.4682C11.0553 19.4432 11.1106 19.4301 11.1666 19.4301H11.8889V20.1523ZM10.8055 22.6801C10.8055 22.6087 10.8267 22.5389 10.8664 22.4795C10.9061 22.4201 10.9625 22.3738 11.0284 22.3465C11.0944 22.3192 11.167 22.312 11.2371 22.3259C11.3071 22.3399 11.3715 22.3743 11.422 22.4248C11.4725 22.4753 11.5069 22.5396 11.5208 22.6097C11.5347 22.6797 11.5276 22.7523 11.5003 22.8183C11.4729 22.8843 11.4266 22.9407 11.3673 22.9804C11.3079 23.0201 11.2381 23.0412 11.1666 23.0412C11.0709 23.0412 10.979 23.0032 10.9113 22.9355C10.8436 22.8677 10.8055 22.7759 10.8055 22.6801ZM10.0833 20.8746H11.8889V21.8785C11.6757 21.688 11.396 21.5895 11.1106 21.6043C10.8251 21.6192 10.5571 21.7463 10.365 21.9579H10.0833V20.8746Z" fill="white"/>
</g>
<defs>
<clipPath id="clip0_2733_41222">
<rect width="8.66667" height="8.66667" fill="white" transform="translate(9 16)"/>
</clipPath>
</defs>
</svg>
