<svg width="375" height="279" viewBox="0 0 375 279" fill="none" xmlns="http://www.w3.org/2000/svg">
<path d="M365.454 80.4735C391.371 145.352 359.787 218.957 294.908 244.875C230.029 270.792 156.424 239.208 130.507 174.329C104.589 109.45 136.174 35.8453 201.053 9.92775C265.931 -15.9898 339.536 15.5946 365.454 80.4735ZM205.027 144.56C214.504 168.282 241.417 179.831 265.139 170.354C288.861 160.878 300.41 133.965 290.934 110.243C281.457 86.5202 254.544 74.9716 230.822 84.4481C207.099 93.9246 195.551 120.838 205.027 144.56Z" fill="#8A3EFC"/>
<path d="M0.354949 128.868L96.934 90.2868L165.564 262.086L123.31 278.965L0.354949 128.868Z" fill="#8A3EFC"/>
</svg>
