<svg width="18" height="19" viewBox="0 0 18 19" fill="none" xmlns="http://www.w3.org/2000/svg">
<path d="M16.325 2.67711H11.9395V1.91488C11.9395 0.859008 11.1257 0 10.1254 0H7.87105C6.87075 0 6.05696 0.859008 6.05696 1.91488V2.67711H1.67143C1.52549 2.67711 1.40723 2.80194 1.40723 2.95598V5.93056C1.40723 6.0846 1.52549 6.20944 1.67143 6.20944H2.81625V16.3415C2.81625 17.8074 3.94611 19 5.33485 19H12.6617C14.0504 19 15.1802 17.8074 15.1802 16.3415V10.8757C15.1802 10.7217 15.062 10.5968 14.916 10.5968C14.7701 10.5968 14.6518 10.7217 14.6518 10.8757V16.3415C14.6518 17.4999 13.759 18.4423 12.6616 18.4423H5.33481C4.23741 18.4423 3.34458 17.4999 3.34458 16.3415V6.2094H14.6518V9.51859C14.6518 9.67263 14.7701 9.79747 14.916 9.79747C15.0619 9.79747 15.1802 9.67263 15.1802 9.51859V6.2094H16.325C16.471 6.2094 16.5892 6.08456 16.5892 5.93052V2.95598C16.5892 2.80191 16.471 2.67711 16.325 2.67711ZM6.58532 1.91488C6.58532 1.16657 7.16209 0.557754 7.87102 0.557754H10.1254C10.8343 0.557754 11.4111 1.16657 11.4111 1.91488V2.67711H11.0941V1.91488C11.0941 1.35108 10.6595 0.892369 10.1254 0.892369H7.87098C7.33685 0.892369 6.90229 1.35108 6.90229 1.91488V2.67711H6.58525V1.91488H6.58532ZM10.5657 1.91488V2.67711H7.43072V1.91488C7.43072 1.6586 7.62823 1.45012 7.87102 1.45012H10.1254C10.3682 1.45009 10.5657 1.65857 10.5657 1.91488ZM16.0608 5.65165H1.93563V3.23482H16.0609V5.65165H16.0608Z" fill="white"/>
<path d="M9.00022 7.13867C8.3884 7.13867 7.89062 7.6641 7.89062 8.30992V16.0438C7.89062 16.6896 8.3884 17.215 9.00022 17.215C9.61205 17.215 10.1098 16.6896 10.1098 16.0438V8.30988C10.1098 7.66407 9.61205 7.13867 9.00022 7.13867ZM9.58143 16.0437C9.58143 16.3821 9.32074 16.6572 9.00022 16.6572C8.67971 16.6572 8.41902 16.3821 8.41902 16.0437V8.30988C8.41902 7.97155 8.67971 7.69639 9.00022 7.69639C9.32074 7.69639 9.58143 7.97155 9.58143 8.30988V16.0437Z" fill="white"/>
<path d="M12.383 7.13867C11.7712 7.13867 11.2734 7.6641 11.2734 8.30992V16.0438C11.2734 16.6896 11.7712 17.215 12.383 17.215C12.9949 17.215 13.4926 16.6896 13.4926 16.0438V8.30988C13.4926 7.66407 12.9949 7.13867 12.383 7.13867ZM12.9642 16.0437C12.9642 16.3821 12.7036 16.6572 12.383 16.6572C12.0625 16.6572 11.8018 16.3821 11.8018 16.0437V8.30988C11.8018 7.97155 12.0625 7.69639 12.383 7.69639C12.7036 7.69639 12.9642 7.97155 12.9642 8.30988V16.0437Z" fill="white"/>
<path d="M5.61644 7.13867C5.00461 7.13867 4.50684 7.6641 4.50684 8.30992V16.0438C4.50684 16.6896 5.00461 17.215 5.61644 17.215C6.22826 17.215 6.72604 16.6896 6.72604 16.0438V8.30988C6.72604 7.66407 6.22826 7.13867 5.61644 7.13867ZM6.19764 16.0437C6.19764 16.3821 5.93696 16.6572 5.61644 16.6572C5.29592 16.6572 5.03523 16.3821 5.03523 16.0437V8.30988C5.03523 7.97155 5.29592 7.69639 5.61644 7.69639C5.93696 7.69639 6.19764 7.97155 6.19764 8.30988V16.0437Z" fill="white"/>
</svg>
